<svg width="13" height="13" viewBox="0 0 13 13" fill="none" xmlns="http://www.w3.org/2000/svg">
<path d="M2.96412 6.875C4.37619 6.25658 5.50658 5.12619 6.125 3.71412C6.74343 5.12619 7.87381 6.25658 9.28589 6.875C7.87381 7.49343 6.74342 8.62381 6.125 10.0359C5.50657 8.62381 4.37619 7.49343 2.96412 6.875Z" stroke="white" stroke-width="1.25"/>
<path d="M10.3949 0.525701C10.4178 0.410775 10.5822 0.410775 10.6051 0.525701C10.7938 1.46893 11.5311 2.20621 12.4743 2.39486C12.5892 2.41784 12.5892 2.58215 12.4743 2.60514C11.5311 2.79379 10.7938 3.53107 10.6051 4.4743C10.5822 4.58922 10.4178 4.58922 10.3949 4.4743C10.2062 3.53107 9.46893 2.79379 8.5257 2.60514C8.41078 2.58215 8.41078 2.41784 8.5257 2.39486C9.46893 2.20621 10.2062 1.46893 10.3949 0.525701Z" fill="white"/>
</svg>
